**ABCDEFGHIJKLMNOPQRSTUVWXYZabcdefghijklmnopqrstuvwxyz**************************
**PARASOLID !"#$%&'()*+,-./:;<=>?@[\]^_`{|}~0123456789**************************
**PART1;
FORMAT=text;
GUISE=transmit;
KEY=C:\Users\swhitesell\Desktop\CAD files\FIXEDBLADE1.x_t;
FILE=C:\Users\swhitesell\Desktop\CAD files\FIXEDBLADE1.x_t;
DATE=unknown;
**PART2;
SCH=SCH_1600115_16004;
USFLD_SIZE=0;
**PART3;
**END_OF_HEADER*****************************************************************
T51 : TRANSMIT FILE created by modeller version 160011517 SCH_1600115_160040 12
 1 709 2 3 0 0 0 0 1e3 1e-8 0 0 0 1 0 1 1 4 5 6 7 8 9 10 81 1 2 382 11 1 12 0 0
 0 13 70 3 0 4 T1 0 0 4 20 1 14 14 13 4 4 0 1 0 15 0 0 16 0 124 5 299 0 17 18 0
 19 +20 21 38 6 665 0 1 22 0 23 +24 25 26 27 28 29 7 709 0 29 30 0 -.14246469302
5467 .0655491684361147 -.004025117129631485 19 8 2 0 1 16 0 31 V16 9 45 0 ?32 0
 33 34 0 0 1 18 10 29 0 35 0 36 37 ?1 17 35 0 38 39 40 10 41 42 0 43 -18 36 32 0
 44 10 45 46 ?1 29 37 666 0 10 47 46 -.00714643311794671 .0485907474557876 -.007
56035866704006 29 47 345 0 48 49 37 -.1172108891360226 .0722437792994435 -.00278
5158667038085 29 46 667 0 36 37 50 -.0466894760950965 .0509964214004748 -.005972
43319368995 29 50 668 0 45 46 51 -.0689004092051045 .0481375695006596 -.00590535
586243408 18 45 34 0 52 36 53 50 ?1 29 51 669 0 53 50 54 -.0925289484779307 .046
6231575017896 -.00590555391838413 18 53 36 0 55 45 56 51 ?1 29 54 670 0 56 51 57
 -.0971082177125002 .0467735484977334 -.00591471715788087 18 56 38 0 58 53 59 54
 ?1 29 57 671 0 59 54 60 -.0699846654598392 .0723240315209765 -.0075603586670393
4 18 59 30 0 41 56 61 57 ?1 29 60 672 0 61 57 62 -.101368548224884 .071245690746
5219 -.00756035866703979 18 61 43 0 63 59 64 60 ?1 29 62 673 0 64 60 65 -.130083
093749388 .055792521995065 -.00606662006515572 18 64 46 0 66 61 67 62 ?1 29 65 6
74 0 67 62 68 -.142464693025467 .0655491684361148 -.00619022520444468 18 67 48 0
 69 64 70 65 ?1 29 68 675 0 71 65 72 -.0747412459292976 .0718851176393819 -.0075
6035866703942 18 71 53 0 73 70 74 68 ?1 29 72 676 0 74 68 75 -.1027390402286626
 .0469967873997439 -.00591325206629385 18 74 55 0 76 71 77 72 ?1 29 75 677 0 77
 72 78 -.0976677079517944 .0467919231094863 -.00591433990182072 18 77 61 0 79 74
 80 75 ?1 29 78 678 0 80 75 81 -.103870937839119 .0698989917728393 -.00278515866
7039905 18 80 70 0 82 77 83 78 ?1 29 81 679 0 83 78 84 -.0769539824160249 .06991
81299607771 -.002785158667039575 18 83 72 0 85 80 86 81 ?1 29 84 680 0 86 81 87
 -.072130216842028 .070302914461697 -.002785158667039495 18 86 74 0 88 83 89 84
 ?1 29 87 681 0 89 84 90 -.00750329635668902 .048681030049581 -.0027851586670400
75 18 89 76 0 91 86 92 87 ?1 29 90 682 0 92 87 93 -.00714159267012058 .048589513
7679907 -.002785158667040055 18 92 78 0 94 89 95 90 ?1 29 93 683 0 95 90 96 -.00
4459322918885915 .0502197793067156 -.00278515866703992 18 95 80 0 97 92 98 93 ?1
 29 96 684 0 98 93 99 .015180054702396 .0624778984880584 -.002785158667038915 18
 98 82 0 100 95 101 96 ?1 29 99 685 0 101 96 102 .03481485060033905 .05796638981
11582 -.002785158667038955 18 101 84 0 103 98 104 99 ?1 29 102 686 0 104 99 105
 .0648495508900482 .0591237317927024 -.002785158667038515 18 104 86 0 106 101 10
7 102 ?1 29 105 687 0 107 102 108 .0692361150572119 .0599094049387056 -.00278515
866703841 18 107 88 0 109 104 110 105 ?1 29 108 688 0 110 105 111 .0935813454565
328 .0519560831976066 -.00278515866703861 18 110 90 0 112 107 113 108 ?1 29 111
 689 0 113 108 114 .0946884031236905 .051689323619258 -.002785158667038615 18 11
3 92 0 115 110 116 111 ?1 29 114 690 0 116 111 117 .1209393066415274 .0730007322
320271 -.002785158667036955 18 116 94 0 118 113 119 114 ?1 29 117 691 0 119 114
 120 .120012748190472 .0748232023591209 -.002785158667036855 18 119 96 0 121 116
 48 117 ?1 29 120 692 0 122 117 123 .1209393066415274 .0730007322320271 -.007560
35866703696 18 122 101 0 124 48 125 120 ?1 29 123 693 0 125 120 126 .12001274819
0472 .0748232023591209 -.00756035866703685 18 125 103 0 127 122 128 123 ?1 29 12
6 694 0 128 123 129 .0946884031236905 .051689323619258 -.00756035866703861 18 12
8 108 0 130 125 131 126 ?1 29 129 695 0 131 126 132 .0935813454565328 .051956083
1976066 -.00756035866703861 18 131 113 0 133 128 134 129 ?1 29 132 696 0 134 129
 135 .0692361150572119 .0599094049387056 -.00756035866703841 18 134 118 0 136 13
1 137 132 ?1 29 135 697 0 137 132 138 .0648495508900482 .0591237317927024 -.0075
6035866703851 18 137 123 0 139 134 140 135 ?1 29 138 698 0 140 135 141 .03481485
060033905 .0579663898111582 -.00756035866703895 18 140 128 0 142 137 143 138 ?1
 29 141 699 0 143 138 144 .015180054702396 .0624778984880584 -.00756035866703891
 18 143 133 0 145 140 146 141 ?1 29 144 700 0 146 141 147 -.00445932291888592 .0
502197793067156 -.00756035866703992 18 146 138 0 148 143 149 144 ?1 29 147 701 0
 149 144 150 -.00714159267012058 .0485895137679907 -.00756035866704006 18 149 14
3 0 151 146 152 147 ?1 29 150 702 0 152 147 153 -.0466894760946705 .050996421400
5296 -.00424290922382141 18 152 149 0 154 149 155 150 ?1 29 153 703 0 155 150 15
6 -.0689004092022179 .0481375695010311 -.004309988203066535 18 155 154 0 157 152
 158 153 ?1 29 156 704 0 158 153 159 -.0925289484751664 .0466231575016988 -.0043
09787395002105 18 158 159 0 160 155 161 156 ?1 29 159 705 0 161 156 162 -.097108
2177125002 .0467735484977334 -.004300625176195305 18 161 164 0 163 158 164 159 ?
1 29 162 706 0 164 159 165 -.0976677079517943 .0467919231094862 -.00430100243225
545 18 164 166 0 166 161 167 162 ?1 29 165 707 0 167 162 30 -.1027390402286626 .
0469967873997439 -.004302090267782315 18 167 174 0 168 164 169 165 ?1 29 30 708
 0 169 165 7 -.130083093749388 .055792521995065 -.004148722268921185 18 169 179
 0 170 167 29 30 ?1 17 170 0 171 172 168 169 173 174 0 175 +18 29 184 0 176 169
 0 7 ?1 17 176 0 177 178 179 29 180 181 0 172 -15 177 182 0 178 182 0 17 178 0 1
77 183 176 169 172 184 0 0 -17 179 0 177 176 183 48 185 186 0 180 -17 180 0 187
 121 188 48 176 181 0 0 +16 181 185 0 ?180 189 190 191 0 0 1 17 172 0 171 192 17
0 29 178 184 0 188 +15 171 187 0 66 193 0 17 192 0 171 66 172 67 188 189 0 0 -16
 184 183 0 ?172 174 194 195 0 0 1 17 188 0 187 180 69 29 192 189 0 0 +15 187 190
 0 69 196 0 17 69 0 187 188 197 67 198 194 0 199 +16 189 188 0 ?188 194 181 200
 0 0 1 16 194 49 0 ?69 184 189 201 0 0 1 30 200 640 0 189 202 191 0 --.142464693
6078494 .0655491681551123 -2669739429528305e-30 0 0 -1 38 202 638 0 1 201 200 20
3 +204 24 205 206 207 133 191 643 0 181 200 208 0 +208 -.142464693025467 .065549
1684361147 -.004025117129631485 -.1172108856055992 .0722437801435451 -.002785241
83684976 0 .0261579262187532 38 208 644 0 1 191 209 210 +204 211 212 213 214 133
 209 645 0 190 208 215 0 +215 -.1172108891360226 .0722437792994436 -.00278515866
7039925 .120012748190472 .0748232023591209 -.002785158667036855 3.37628039527017
 2.92865081750746 141 210 191 210 210 208 51 204 297 0 196 216 18 217 +.00706679
314084332 -.4475430227638845 -.00756035866703809 0 0 -1 .534437332071152 1 0 0 1
24 211 294 0 182 218 219 220 +221 222 40 3 212 0 1 3 .000199243893646649 .027405
6951011824 ??-.1424646922727926 .065549168544191 -.00402511709620146 -.131228669
645967 .0686910587184531 -.003454064674400565 -.1172108856055992 .07224378014354
51 -.00278524183684976 41 1 213 L-.1424646922727926 .065549168544191 -.004025117
09620146 41 1 214 L-.1172108856055992 .0722437801435451 -.00278524183684976 14 1
82 181 223 ?193 224 177 4 211 +0 0 193 224 31 51 218 293 0 225 226 211 0 +.07015
27952634813 .0421530512195595 -.00756035866703809 0 0 -1 .01778 1 0 0 51 219 295
 0 227 211 216 0 +.0476945276955166 .114020771860797 -.00756035866703809 0 0 -1
 .0575150400247005 1 0 0 141 220 195 228 229 211 126 221 FF3 1 10 2 5 5 4 2 TFF9
 4 230 231 232 233 234 125 222 0 1 0 1 0 1 0 1 2 BBBBBBBB????0 0 0 0 45 80 230 -
.0979152505573503 .0731041353302911 -.002475342167038085 1 -.1350592571767842 .0
531145240754127 -.004407583667038085 1 -.0996436058194228 .0731926280354053 -.00
2475342167038085 1 -.1369170573655128 .0540736126151211 -.004407583667038085 1 -
.1013719610814954 .0732811207405196 -.002475342167038085 1 -.1387314329339994 .0
551168116219643 -.004407583667038085 1 -.103100316343568 .0733696134456338 -.002
475342167038085 1 -.140494964883908 .056239855445638 -.004407583667038085 1 -.10
3406366174943 .0733852833591478 -.002475342167038085 1 -.1408072436542154 .05643
87192905921 -.004407583667038085 1 -.1037126732443582 .0733959290281586 -.002475
342167038085 1 -.141117929170856 .0566400850440528 -.004407583667038085 1 -.1040
190725092356 .0734015447166293 -.002475342167038085 1 -.141426981552126 .0568439
268573443 -.004407583667038085 1 -.1083851588159376 .07348156638556 -.0024753421
67038085 1 -.1458308738736602 .0597486040278375 -.004407583667038085 1 -.1127377
199596272 .0742595713046666 -.002475342167038085 1 -.149901528240624 .0631580830
884991 -.004407583667038085 1 -.1168611702170996 .0756970242879736 -.00247534216
7038085 1 -.153533661214906 .0669841812447916 -.004407583667038085 1 127 4 231 4
 3 3 4 127 2 232 2 2 128 4 233 0 .2702450151959815 .3180988581793755 1 128 2 234
 0 1 38 195 634 0 184 235 201 0 +18 211 236 237 238 141 228 208 229 220 211 141
 229 239 220 228 211 38 239 552 0 1 240 241 242 +243 211 244 245 246 133 240 551
 0 186 247 239 0 +239 -.1172106172276076 .0722446942700082 -.002785158667039925
 -.103870937839119 .0698989917728393 -.002785158667039905 0 .01354054548166066 3
8 241 556 0 248 239 249 0 +243 250 251 252 253 141 242 240 242 242 239 50 243 28
7 0 254 255 250 256 +-.00920173335695827 .0672927383151182 -.00278515866703891 -
1225934931154638e-29 -627160470441873e-28 1 1 0 1225934931154638e-29 40 3 244 0
 1 3 .0003901068847084775 .133161327176707 ??-.1172106172276076 .072244694270008
2 -.002785158667039925 -.111501702847362 .0709536571580499 -.002785158667039935
 -.1038709378391302 .0698989917727268 -.002785158667039905 41 1 245 L-.117210617
2276076 .0722446942700082 -.002785158667039925 41 1 246 L-.1038709378391302 .069
8989917727268 -.002785158667039905 14 254 63 257 ?258 17 259 4 243 +0 0 258 17 3
1 51 255 286 0 260 261 243 0 +-.0001840637891407735 .0737278107669522 .235974841
3329465 -1225933992232926e-29 -62706007508867e-27 1 .002413 1 -76885733939375e-4
1 1225933992232926e-29 124 250 288 0 224 243 262 263 +264 265 141 256 249 266 26
7 243 38 249 558 0 268 241 269 0 +243 270 271 272 273 141 266 269 274 256 243 14
1 267 239 256 274 243 141 274 241 267 266 243 38 269 562 0 275 249 276 0 +243 22
6 277 278 279 16 275 75 0 ?280 268 281 269 0 0 1 31 276 563 0 281 269 282 0 -.11
97341702554338 .0735348011563988 -.00278515866703694 -1225934931154638e-29 -6271
60470441873e-28 1 0 -1 -627160470441873e-28 .001318174239266782 124 226 292 0 28
3 284 218 285 +286 287 40 7 277 0 1 7 .003081564643556015 .370592610080598 ??-.0
721302168420136 .0703029144617106 -.002785158667039495 -.0503274481521635 .07234
43814151512 -.002785158667039095 -.0341080008996826 .0704499061624079 -.00278515
8667039015 -.01946308655376375 .0631240521008216 -.002785158667039295 -.01401331
064033006 .0581340999848439 -.002785158667039545 -.00949957775231597 .0522257347
88935 -.002785158667039855 -.00750251566075657 .0486794639741761 -.0027851586670
40055 41 1 278 L-.0721302168420136 .0703029144617106 -.002785158667039495 41 1 2
79 L-.00750251566075657 .0486794639741761 -.002785158667040055 14 283 168 288 ?2
89 290 291 4 226 +0 0 289 290 31 51 284 291 0 292 293 226 294 +-.033213995439179
5 -.0536970044696334 -.00756035866703809 0 0 -1 .1055571030264084 1 0 0 141 285
 295 296 297 226 126 286 FF3 1 16 2 5 5 6 2 TFF9 4 298 299 300 301 302 125 287 0
 1 0 1 0 1 0 1 2 BBBBBBBB????0 0 0 0 45 128 298 -.00611275265332828 .04593162378
86766 -.002475342167038085 1 -.00714682168693346 .0461965699042513 -.00440758366
7038085 1 -.00756589668451784 .0531048187651019 -.002475342167038085 1 -.0157212
5247292565 .0483516277344067 -.004407583667038085 1 -.0110762392763706 .05984920
4310594 -.002475342167038085 1 -.0245419348179745 .049525285853912 -.00440758366
7038085 1 -.01611799142046305 .0651545873374259 -.002475342167038085 1 -.0333815
552543251 .0496872984964344 -.004407583667038085 1 -.0189497961134881 .068134465
7852948 -.002475342167038085 1 -.0383465114681185 .0497782962583855 -.0044075836
67038085 1 -.02225364836717275 .0706648322183558 -.002475342167038085 1 -.043317
27772691985 .0495510786125907 -.00440758366704899 1 -.02586847994558885 .0726223
270561898 -.002475342167038085 1 -.0482532270752858 .049007502649241 -.004407583
66704899 1 -.0318593777683503 .0758665035296024 -.002475342167038085 1 -.0564336
270643061 .0481066285740055 -.004407583667048985 1 -.03870727441704845 .07751070
53541542 -.002475342167025485 1 -.064614027053328 .047205754498784 -.00440758366
704899 1 -.0455180366447166 .0773402483600554 -.002475342167044405 1 -.072794427
0423496 .0463048804235584 -.00440758366704899 1 -.0466240730194279 .077312566930
357 -.002475342167047475 1 -.0741228862727702 .0461585826285501 -.00440758366704
899 1 -.0477289359719314 .0772380382173712 -.002475342167048985 1 -.075452782809
2031 .0460253363420125 -.00440758366704899 1 -.048828670156346 .0771169289784944
 -.002475342167048985 1 -.0767838599553757 .0459051672843599 -.00440758366704899
 1 -.0548937149551239 .0764490103398419 -.002475342167048985 1 -.084124763454217
7 .0452424337543677 -.00440758366704899 1 -.0609587597539017 .0757810917011896 -
.002475342167048985 1 -.0915015925665984 .04497782588552975 -.00440758366704899
 1 -.0670238045526794 .0751131730625364 -.002475342167048985 1 -.098871113336633
6 .0451128945282022 -.00440758366704899 1 127 6 299 4 3 3 3 3 4 127 2 300 2 2 12
8 6 301 0 .287571727626665 .4490923547024535 .7167821632283 .760253753554317 1 1
28 2 302 0 1 38 295 600 0 303 304 305 0 +293 226 306 307 308 141 296 309 310 285
 226 141 297 269 285 311 226 141 311 312 297 310 226 38 312 592 0 313 314 304 0
 +226 284 315 316 317 141 310 318 311 296 226 38 318 608 0 319 305 320 0 +321 22
6 322 323 324 16 319 158 0 ?325 326 327 318 0 0 1 38 305 604 0 328 295 318 0 +32
1 216 329 330 331 38 320 610 0 327 318 309 0 +332 216 333 334 335 51 321 272 0 3
36 0 337 338 +-.092528948474546 .2317119286203965 -.00756035866704798 0 0 -1 .18
5088771118698 1 0 0 40 2 322 0 1 2 .00151493796971026 .128034959886036 ??-.06890
04092051046 .0481375695006596 -.004309986471642085 -.0925289484757868 .046623157
5016988 -.00430978841569916 41 1 323 L-.0689004092051046 .0481375695006596 -.004
309986471642085 41 1 324 L-.0925289484757868 .0466231575016988 -.004309788415699
16 14 336 156 339 ?290 340 341 4 321 +0 0 290 340 31 51 337 273 0 342 321 343 0
 +.0869261511444901 .0880740215131422 -.00756035866703809 0 0 -1 .03720347828655
03 1 0 0 141 338 305 344 344 321 141 344 318 338 338 321 14 342 105 345 ?346 258
 347 4 337 +0 0 346 258 31 50 343 274 0 348 337 349 0 +.034814850600339 .0579663
898111583 -.00756035866703809 -.223935810348843 -.974603895356163 0 .97460389535
6163 -.223935810348843 0 14 348 130 350 ?351 227 352 4 343 +0 0 351 227 31 124 3
49 275 0 353 343 354 355 +356 357 14 353 50 358 ?17 359 360 4 349 +0 0 17 359 31
 51 354 276 0 351 349 332 0 +.01150847905641122 .0464986233534857 -.007560358667
03809 0 0 -1 .0163956610586631 1 0 0 141 355 361 362 362 349 126 356 FF1 3 2 7 5
 5 2 3 TFF9 4 363 364 365 366 367 125 357 0 1 0 1 0 1 0 1 2 BBBBBBBB????0 0 0 0
 45 56 363 -.0716876695778884 .0745995606356127 -.00774000016702718 1 -.07307838
17970094 .074446407172947 -.00774000016702718 1 -.0744690940161304 .074293253710
2812 -.00774000016702718 1 -.0758598062352513 .0741401002476152 -.00774000016702
718 1 -.0831803017655515 .0733339239420635 -.00774000016702718 1 -.0905514188885
485 .0729876956535083 -.00774000016702718 1 -.0979152505573502 .0731041353302926
 -.00774000016702718 1 -.1045322347255864 .0454027469426229 -.00580775866703808
 1 -.106222244177012 .0454337214509839 -.00580775866703808 1 -.1079111193345642
 .0455265404876837 -.00580775866703808 1 -.109594344587771 .0456809558788937 -.0
0580775866703808 1 -.1184545838041752 .0464937747824887 -.00580775866703808 1 -.
1271531928693926 .0490330218140709 -.00580775866703808 1 -.1350592571767842 .053
1145240754127 -.00580775866703808 1 127 2 364 2 2 127 3 365 4 3 4 128 2 366 0 1
 128 3 367 0 .1596463153129805 1 38 361 622 0 368 369 370 0 +18 349 371 372 373
 141 362 374 355 355 349 38 374 661 0 375 376 22 0 +349 25 377 378 379 16 375 52
 0 ?380 381 382 374 0 0 1 38 376 657 0 381 383 374 0 +25 5 384 385 386 133 22 66
4 0 382 374 6 0 +6 -.101368548224884 .0712456907465219 -.00756035866703979 -.114
252897021778 .0729430659894696 -.00756035866703984 0 .0130160128681682 50 25 283
 0 387 388 389 390 +-.00920173335695827 .0672927383151182 -.00756035866703891 -1
225934931154638e-29 -627160470441873e-28 1 1 0 1225934931154638e-29 40 4 377 0 1
 4 .000375566738559237 .0715881446102032 ??-.0747412459292976 .071885117639382 -
.00756035866703942 -.0828009725509877 .0712100977766015 -.00756035866703956 -.09
08867826541837 .0709362955004828 -.00756035866703968 -.1013685482246938 .0712456
907466255 -.00756035866703979 41 1 378 L-.0747412459292976 .071885117639382 -.00
756035866703942 41 1 379 L-.1013685482246938 .0712456907466255 -.007560358667039
79 14 387 192 391 ?0 196 392 4 25 -0 0 0 196 31 51 388 282 0 15 393 25 0 +.09603
964176923 .066563593880435 .2359748413329475 -1226856668651744e-29 -627060075088
67e-27 1 .002413 1 -769435912938216e-42 1226856668651744e-29 51 389 284 0 394 25
 261 0 +.0710744933987559 .02429949880260855 -.00756035866703809 0 0 -1 .0356573
2813810225 1 0 0 141 390 374 395 396 25 141 395 6 397 390 25 141 396 383 390 397
 25 38 383 655 0 42 398 376 0 +216 25 399 400 401 141 397 376 396 395 25 16 42 2
8 0 ?41 402 381 383 0 0 1 31 398 651 0 402 403 383 0 +-.000184063789137788 .0737
278107669674 -.00756035866703839 -1225934931154638e-29 -627160470441873e-28 1 0
 -1 -627160470441873e-28 .002413 124 216 296 0 404 219 204 405 +406 407 40 7 399
 0 1 7 .00592787226436358 .3347218377097735 ??-.00714592120248027 .0485894582062
467 -.00756035866704006 -.00845078351410768 .0515211634275145 -.0075603586670398
9 -.01098250923750926 .0559175330390522 -.00756035866703964 -.01592192971543585
 .062001358155435 -.00756035866703932 -.0270217939149357 .069984578667701 -.0075
6035866703896 -.04017091791863205 .0740237660534013 -.00756035866703887 -.069984
6654598308 .0723240315209844 -.00756035866703934 41 1 400 L-.00714592120248027 .
0485894582062467 -.00756035866704006 41 1 401 L-.0699846654598308 .0723240315209
844 -.00756035866703934 14 404 26 408 ?359 260 38 4 216 +0 0 359 260 31 141 405
 320 409 410 216 126 406 FF1 3 2 16 5 5 2 6 TFF9 4 411 412 413 414 415 125 407 0
 1 0 1 0 1 0 1 2 BBBBBBBB????0 0 0 0 45 128 411 -.00611275265332828 .04593162378
86766 -.00774000016703809 1 -.00756589668451784 .0531048187651019 -.007740000167
03809 1 -.0110762392763706 .059849204310594 -.00774000016703809 1 -.016117991420
46305 .0651545873374259 -.00774000016703809 1 -.0189497961134881 .06813446578529
48 -.00774000016703809 1 -.02225364836717275 .0706648322183558 -.007740000167038
09 1 -.02586847994558885 .0726223270561898 -.00774000016703809 1 -.0318593777683
503 .0758665035296024 -.00774000016703809 1 -.03870727441704845 .077510705354154
2 -.00774000016705068 1 -.0455180366447166 .0773402483600554 -.00774000016703177
 1 -.0466240730194279 .077312566930357 -.0077400001670287 1 -.0477289359719314 .
0772380382173712 -.00774000016702718 1 -.048828670156346 .0771169289784944 -.007
74000016702718 1 -.0548937149551239 .0764490103398419 -.00774000016702718 1 -.06
09587597539017 .0757810917011896 -.00774000016702718 1 -.0670238045526794 .07511
31730625364 -.00774000016702718 1 -.00714682168693346 .0461965699042513 -.005807
75866703808 1 -.01572125247292565 .0483516277344067 -.00580775866703808 1 -.0245
419348179745 .049525285853912 -.00580775866703808 1 -.0333815552543251 .04968729
84964344 -.00580775866703808 1 -.0383465114681185 .0497782962583855 -.0058077586
6703808 1 -.04331727772691985 .0495510786125907 -.00580775866702718 1 -.04825322
70752858 .049007502649241 -.00580775866702718 1 -.0564336270643061 .048106628574
0055 -.00580775866702718 1 -.064614027053328 .047205754498784 -.0058077586670271
8 1 -.0727944270423496 .0463048804235584 -.00580775866702718 1 -.074122886272770
2 .0461585826285501 -.00580775866702718 1 -.0754527828092031 .0460253363420125 -
.00580775866702718 1 -.0767838599553757 .0459051672843599 -.00580775866702718 1
 -.0841247634542177 .0452424337543677 -.00580775866702718 1 -.0915015925665984 .
04497782588552975 -.00580775866702718 1 -.0988711133366336 .0451128945282022 -.0
0580775866702718 1 127 2 412 2 2 127 6 413 4 3 3 3 3 4 128 2 414 0 1 128 6 415 0
 .287571727626665 .4490923547024535 .7167821632283 .760253753554317 1 141 409 38
3 416 405 216 141 410 417 405 418 216 38 417 584 0 419 420 421 0 +216 284 422 42
3 424 141 418 304 410 416 216 38 304 596 0 425 312 295 0 +293 216 426 427 428 14
1 416 305 418 409 216 16 425 33 0 ?44 313 429 304 0 0 1 50 293 290 0 340 262 284
 430 +-.0466894760942446 .0509964214005845 -.00756035866703809 .1276605767719526
 -.991817915314224 0 .991817915314224 .1276605767719526 0 40 2 426 0 1 2 4818891
68844013e-19 .003466174067077655 ??-.0689004092051045 .0481375695006595 -.005905
35586243408 -.0466894760950965 .0509964214004748 -.00597243319368995 41 1 427 L-
.0689004092051045 .0481375695006595 -.00590535586243408 41 1 428 L-.046689476095
0965 .0509964214004748 -.00597243319368995 14 340 151 431 ?336 292 432 4 293 +0
 0 336 292 31 51 262 289 0 258 250 293 0 +.1197341702554338 .0735348011563988 -.
00756035866703809 0 0 -1 .001318174239266782 1 0 0 141 430 304 433 433 293 141 4
33 295 430 430 293 14 258 98 434 ?342 254 435 4 262 +0 0 342 254 31 81 1 434 361
 436 258 0 0 257 345 437 15 435 99 0 438 258 0 13 31 3 0 0 0 0 0 0 8 15 14 15 5
 439 ?440 0 441 4 388 -0 0 440 0 31 81 1 439 353 436 15 0 0 0 442 443 14 440 12
 442 ?260 15 444 4 261 -0 0 260 15 31 15 441 6 0 445 15 446 17 445 0 441 445 445
 0 447 448 0 0 -15 446 9 0 449 15 0 17 449 0 446 449 449 0 450 451 0 0 -17 450 0
 259 450 450 0 449 451 0 0 +16 451 10 0 ?450 452 453 454 0 0 1 16 452 39 0 ?455
 33 451 456 0 0 1 16 453 17 0 ?457 451 458 459 0 0 1 31 454 546 0 451 456 459 0
 -.0960396417692329 .0665635938804499 -.002785158667037685 -1225934931154638e-29
 -627160470441873e-28 1 0 -1 -627160470441873e-28 .002413 134 456 533 0 452 460
 454 0 +461 462 31 459 547 0 453 454 247 0 -.0461037036083447 .071070113498952 -
.00278515866703799 -1225934931154638e-29 -627160470441873e-28 1 0 -1 -6271604704
41873e-28 .002413 31 247 548 0 458 459 240 0 --.0001840637891378465 .07372781076
69672 -.00278515866703838 -1225934931154638e-29 -627160470441873e-28 1 0 -1 -627
160470441873e-28 .002413 16 458 24 0 ?463 453 186 247 0 0 1 17 463 0 464 463 463
 0 465 458 0 0 +16 186 68 0 ?185 458 248 240 0 0 1 17 185 0 466 467 468 80 179 1
86 0 183 +16 248 71 0 ?467 186 268 241 0 0 1 17 467 0 466 469 185 83 82 248 0 47
0 +16 268 73 0 ?469 248 275 249 0 0 1 17 469 0 466 280 467 86 85 268 0 471 +15 4
66 67 0 185 254 0 17 280 0 466 94 469 89 88 275 0 472 +17 85 0 473 474 471 83 46
9 268 0 467 -17 471 0 473 85 163 86 475 476 0 0 -15 473 172 0 477 289 0 17 163 0
 473 471 477 161 478 479 0 480 -17 475 0 291 481 88 161 471 476 0 0 +16 476 170
 0 ?475 482 483 484 0 0 1 16 482 60 0 ?485 479 476 486 0 0 1 16 483 175 0 ?474 4
76 487 488 0 0 1 134 484 443 0 476 488 489 0 +490 491 134 488 436 0 483 492 484
 0 +493 494 30 489 463 0 326 484 495 0 +-.0689004091993312 .0481375695014027 -.0
0756035866704798 0 0 1 136 490 1 2 4 2 5 FFT1 496 497 498 135 491 2 0 45 8 496 -
.0670238045526794 .0751131730625364 -.002475342167048985 1 -.0988711133366336 .0
451128945282021 -.004407583667038085 1 127 2 497 2 2 128 2 498 0 1 16 326 155 0
 ?157 328 319 489 0 0 1 30 495 479 0 499 489 34 0 +-.092528948474546 .0466231575
016988 -.00756035866704798 0 0 1 16 499 160 0 ?160 327 500 495 0 0 1 134 34 493
 0 9 495 460 0 +501 502 134 460 502 0 33 34 456 0 +503 504 136 501 1 2 4 2 5 FFT
1 505 506 507 135 502 2 0 45 8 505 -.0979152505573503 .0731041353302911 -.007740
00016703809 1 -.1350592571767842 .0531145240754127 -.00580775866703808 1 127 2 5
06 2 2 128 2 507 0 1 16 33 54 0 ?508 9 452 460 0 0 1 136 503 1 2 4 2 5 FFT1 509
 510 511 135 504 2 0 45 8 509 -.0716876695778884 .0745995606356127 -.00774000016
702718 1 -.1045322347255864 .0454027469426229 -.00580775866703808 1 127 2 510 2
 2 128 2 511 0 1 17 508 0 360 512 73 74 513 33 0 514 +15 360 51 0 73 353 0 17 51
2 0 360 515 508 64 76 368 0 0 -17 73 0 360 508 515 71 380 375 0 513 -17 513 0 51
6 517 514 71 508 33 0 518 -17 514 0 516 513 519 74 79 520 0 0 -15 516 58 0 517 1
7 0 17 519 0 516 514 455 77 485 482 0 521 -17 79 0 171 166 76 77 514 520 0 519 +
16 520 62 0 ?79 368 522 370 0 0 1 16 368 56 0 ?76 523 520 361 0 0 1 16 522 167 0
 ?166 520 524 525 0 0 1 38 370 624 0 520 361 526 0 -18 5 527 528 529 38 526 626
 0 524 370 235 0 +18 270 530 531 532 51 18 298 0 193 204 5 533 +-.09766770795179
43 .109663740368185 -.00756035866703809 0 0 -1 .0628718172586988 1 0 0 40 4 527
 0 1 4 636423573599337e-19 .0450394523768102 ??-.0970858535848771 .0467946155857
697 -.0059160740353477 -.0999118443590281 .0468319867940809 -.00591071361633664
 -.1013260111452984 .0468984456333109 -.00591097439655128 -.1027390402286626 .04
69967873997438 -.00591325206629385 41 1 528 L-.0970858535848771 .046794615585769
7 -.0059160740353477 41 1 529 L-.1027390402286626 .0469967873997438 -.0059132520
6629385 14 193 186 534 ?196 182 171 4 18 +0 0 196 182 31 141 533 235 535 536 18
 38 235 630 0 174 526 195 0 +18 250 537 538 539 141 535 195 540 533 18 141 536 3
69 533 541 18 38 369 618 0 523 486 361 0 +18 24 542 543 544 141 541 361 536 545
 18 141 545 370 541 540 18 141 540 526 545 535 18 16 523 47 0 ?66 487 368 369 0
 0 1 38 486 614 0 482 546 369 0 -332 5 547 548 549 124 24 279 0 359 550 270 551
 +552 553 40 3 542 0 1 3 .000786860493388859 .158375648030341 ??-.14246469377814
14 .0655491683280385 -.00619022517101466 -.1381733751141524 .0615788536245992 -.
00614077470960894 -.130083093749388 .055792521995065 -.00606662006515572 41 1 54
3 L-.1424646937781414 .0655491683280385 -.00619022517101466 41 1 544 L-.13008309
3749388 .055792521995065 -.00606662006515572 14 359 40 554 ?353 404 555 4 24 +0
 0 353 404 31 51 550 278 0 346 332 24 0 +.0944133750599468 .0529784872586848 -.0
0756035866703809 0 0 -1 .00131817423926677 1 0 0 124 270 280 0 289 24 393 556 +5
57 558 141 551 202 559 560 24 126 552 FF1 3 2 10 5 5 2 4 TFF9 4 561 562 563 564
 565 125 553 0 1 0 1 0 1 0 1 2 BBBBBBBB????0 0 0 0 45 80 561 -.0979152505573503
 .0731041353302911 -.00774000016703809 1 -.0996436058194228 .0731926280354053 -.
00774000016703809 1 -.1013719610814954 .0732811207405196 -.00774000016703809 1 -
.103100316343568 .0733696134456338 -.00774000016703809 1 -.103406366174943 .0733
852833591478 -.00774000016703809 1 -.1037126732443582 .0733959290281586 -.007740
00016703809 1 -.1040190725092356 .0734015447166293 -.00774000016703809 1 -.10838
51588159376 .07348156638556 -.00774000016703809 1 -.1127377199596272 .0742595713
046666 -.00774000016703809 1 -.1168611702170996 .0756970242879736 -.007740000167
03809 1 -.1350592571767842 .0531145240754127 -.00580775866703808 1 -.13691705736
55128 .0540736126151211 -.00580775866703808 1 -.1387314329339994 .05511681162196
43 -.00580775866703808 1 -.140494964883908 .056239855445638 -.00580775866703808
 1 -.1408072436542154 .0564387192905921 -.00580775866703808 1 -.141117929170856
 .0566400850440528 -.00580775866703808 1 -.141426981552126 .0568439268573443 -.0
0580775866703808 1 -.1458308738736602 .0597486040278375 -.00580775866703808 1 -.
149901528240624 .0631580830884991 -.00580775866703808 1 -.153533661214906 .06698
41812447916 -.00580775866703808 1 127 2 562 2 2 127 4 563 4 3 3 4 128 2 564 0 1
 128 4 565 0 .2702450151959815 .3180988581793755 1 141 559 6 560 551 24 141 560
 369 551 559 24 14 289 171 566 ?224 283 473 4 270 +0 0 224 283 31 51 393 281 0 5
67 270 388 0 +-.00659894847248405 .0507184002426949 -.00756035866703809 0 0 -1 .
00219695706544462 1 0 0 141 556 249 568 569 270 126 557 FF3 1 4 2 5 5 2 2 TFF9 4
 570 571 572 573 574 125 558 0 1 0 1 0 1 0 1 2 BBBBBBBB????0 0 0 0 45 32 570 -.0
670238045526794 .0751131730625364 -.002475342167048985 1 -.0988711133366336 .045
1128945282021 -.004407583667038085 1 -.0685784262277491 .0749419689202286 -.0024
75342167048985 1 -.100758153799618 .0452095119996757 -.004407583667038085 1 -.07
01330479028187 .0747707647779208 -.002475342167048985 1 -.1026451942626022 .0453
061294711493 -.004407583667038085 1 -.0716876695778884 .0745995606356127 -.00247
5342167048985 1 -.1045322347255864 .0454027469426229 -.004407583667038085 1 127
 2 571 4 4 127 2 572 2 2 128 2 573 0 1 128 2 574 0 1 141 568 526 569 556 270 141
 569 546 556 568 270 38 546 613 0 479 309 486 0 +332 270 575 576 577 16 479 165
 0 ?478 500 482 546 0 0 1 38 309 612 0 500 320 546 0 +332 226 578 579 580 50 332
 277 0 290 354 550 581 +-.092528948474546 .0466231575016988 -.00756035866704798
 -.0328240052306469 -.999461147159117 0 .999461147159117 -.0328240052306469 0 40
 4 575 0 1 4 2451939574156845e-23 171780854154912e-19 ??-.0971082177125002 .0467
735484977334 -.004300625176190155 -.0985263144118246 .0468201212070464 -.0043015
84903772185 -.0999444111031517 .0468666939160966 -.004302556389402635 -.10278060
44618206 .0469598393334094 -.00430453548621836 41 1 576 L-.0971082177125002 .046
7735484977334 -.004300625176190155 41 1 577 L-.1027806044618206 .046959839333409
4 -.00430453548621836 14 290 161 582 ?283 336 583 4 332 +0 0 283 336 31 141 581
 320 584 585 332 141 584 486 586 581 332 141 585 309 581 586 332 141 586 546 585
 584 332 81 1 582 373 436 290 0 0 339 288 587 15 583 162 0 55 290 0 17 55 0 583
 160 485 53 58 327 0 588 +17 160 0 583 480 55 158 589 499 0 325 +17 485 0 583 55
 521 56 519 482 0 0 +17 58 0 38 40 588 56 55 327 0 455 -16 327 37 0 ?55 319 499
 320 0 0 1 17 588 0 38 58 590 53 52 328 0 589 -15 38 27 0 35 404 0 17 590 0 38 5
88 39 45 44 425 0 591 -17 52 0 341 157 589 45 588 328 0 590 +16 328 35 0 ?52 303
 326 305 0 0 1 17 589 0 341 52 325 53 160 499 0 0 -15 341 157 0 52 336 0 17 325
 0 341 589 157 158 592 319 0 481 +17 157 0 341 325 52 155 591 326 0 593 +17 592
 0 291 594 481 155 325 319 0 0 -17 481 0 291 592 475 158 480 500 0 0 -15 291 169
 0 481 283 0 17 480 0 583 478 160 161 481 500 0 475 +16 500 163 0 ?480 499 479 3
09 0 0 1 17 478 0 583 521 480 164 163 479 0 477 +17 521 0 583 485 478 77 166 522
 0 0 -17 477 0 473 163 474 164 168 524 0 0 -17 474 0 473 477 85 167 470 483 0 17
3 +17 168 0 171 170 166 167 477 524 0 474 +16 524 173 0 ?168 522 174 526 0 0 1 1
6 174 178 0 ?170 524 184 235 0 0 1 17 166 0 171 168 79 164 521 522 0 478 +17 470
 0 595 82 173 83 474 483 0 0 -17 173 0 595 470 175 167 170 174 0 0 -15 595 177 0
 173 224 0 17 175 0 595 173 82 169 183 487 0 178 +17 82 0 595 175 470 80 467 248
 0 185 -17 183 0 177 179 178 80 175 487 0 0 -16 487 180 0 ?175 483 523 492 0 0 1
 134 492 427 0 487 596 488 0 +597 598 30 596 392 0 429 599 492 0 +-.046689476094
2446 .0509964214005845 -.00756035866703809 0 0 1 136 597 1 2 4 2 5 FFT1 600 601
 602 135 598 2 0 45 8 600 -.0979152505573503 .0731041353302911 -.002475342167038
085 1 -.1350592571767842 .0531145240754127 -.004407583667038085 1 127 2 601 2 2
 128 2 602 0 1 16 429 150 0 ?154 425 303 596 0 0 1 30 599 271 0 603 525 596 0 +-
.004459322918885925 .0502197793067156 -.00756035866703809 0 0 1 16 603 137 0 ?60
4 605 419 599 0 0 1 30 525 265 0 522 606 599 0 +-.0976677079517943 .046791923109
4862 -.00756035866703809 0 0 1 30 606 264 0 607 608 525 0 +.0151800547030041 .06
24778984879187 -.00756035866703809 0 0 1 16 607 132 0 ?609 610 611 606 0 0 1 30
 608 259 0 612 613 606 0 +.034814850600339 .0579663898111583 -.00756035866703809
 0 0 1 16 612 127 0 ?614 615 616 608 0 0 1 30 613 254 0 617 618 608 0 +.12093930
66415274 .0730007322320271 -.00756035866703809 0 0 1 16 617 100 0 ?619 620 621 6
13 0 0 1 30 618 240 0 622 623 613 0 +.0692361150572119 .0599094049387056 -.00756
035866703809 0 0 1 16 622 117 0 ?624 625 626 618 0 0 1 30 623 239 0 627 628 618
 0 +.0946884031236905 .051689323619258 -.00756035866703809 0 0 1 16 627 107 0 ?6
29 630 631 623 0 0 1 30 628 235 0 632 633 623 0 +-.00714159267012058 .0485895137
679907 -.00756035866703809 0 0 1 16 632 142 0 ?634 635 636 628 0 0 1 30 633 225
 0 637 638 628 0 +.0935813454565328 .0519560831976066 -.00756035866703809 0 0 1
 16 637 112 0 ?639 640 641 633 0 0 1 30 638 209 0 642 643 633 0 +.06484955089004
82 .0591237317927024 -.00756035866703809 0 0 1 16 642 122 0 ?644 645 646 638 0 0
 1 30 643 197 0 647 0 638 0 +.120012748190472 .0748232023591208 -.00756035866703
809 0 0 1 16 647 104 0 ?648 649 650 643 0 0 1 17 648 0 435 438 651 119 127 647 0
 0 +16 649 102 0 ?651 281 647 282 0 0 1 16 650 93 0 ?652 647 620 653 0 0 1 17 65
2 0 347 130 619 113 118 650 0 629 +16 620 109 0 ?654 650 617 655 0 0 1 31 653 56
5 0 650 282 655 0 -.0869261511444901 .0880740215131422 -.002785158667036425 -122
5934931154638e-29 -627160470441873e-28 1 0 -1 -627160470441873e-28 .037203478286
5503 31 282 564 0 649 276 653 0 +.1197341702554338 .0735348011563988 -.007560358
66703694 -1225934931154638e-29 -627160470441873e-28 1 0 -1 -627160470441873e-28
 .001318174239266782 31 655 566 0 620 653 656 0 +.0869261511444901 .088074021513
1422 -.00756035866703643 -1225934931154638e-29 -627160470441873e-28 1 0 -1 -6271
60470441873e-28 .0372034782865503 31 656 567 0 621 655 657 0 -.0944133750599468
 .0529784872586848 -.002785158667038535 -1225934931154638e-29 -627160470441873e-
28 1 0 -1 -627160470441873e-28 .00131817423926677 16 621 91 0 ?658 617 630 656 0
 0 1 31 657 568 0 630 656 659 0 +.0944133750599468 .0529784872586848 -.007560358
66703854 -1225934931154638e-29 -627160470441873e-28 1 0 -1 -627160470441873e-28
 .00131817423926677 16 630 114 0 ?660 621 627 657 0 0 1 31 659 569 0 631 657 661
 0 +.0710744933987559 .02429949880260855 -.00278515866704062 -1225934931154638e-
29 -627160470441873e-28 1 0 -1 -627160470441873e-28 .03565732813810225 16 631 89
 0 ?662 627 640 659 0 0 1 31 661 570 0 640 659 663 0 -.0710744933987559 .0242994
9880260855 -.00756035866704062 -1225934931154638e-29 -627160470441873e-28 1 0 -1
 -627160470441873e-28 .03565732813810225 16 640 119 0 ?664 631 637 661 0 0 1 31
 663 571 0 641 661 665 0 +.0701527952634813 .0421530512195595 -.0027851586670395
15 -1225934931154638e-29 -627160470441873e-28 1 0 -1 -627160470441873e-28 .01778
 16 641 87 0 ?666 637 625 663 0 0 1 31 665 572 0 625 663 667 0 -.070152795263481
3 .0421530512195595 -.00756035866703951 -1225934931154638e-29 -627160470441873e-
28 1 0 -1 -627160470441873e-28 .01778 16 625 124 0 ?668 641 622 665 0 0 1 31 667
 573 0 626 665 669 0 -.0476945276955166 .114020771860797 -.00278515866703528 -12
25934931154638e-29 -627160470441873e-28 1 0 -1 -627160470441873e-28 .05751504002
47005 16 626 85 0 ?670 622 645 667 0 0 1 31 669 574 0 645 667 671 0 +.0476945276
955166 .114020771860797 -.00756035866703528 -1225934931154638e-29 -6271604704418
73e-28 1 0 -1 -627160470441873e-28 .0575150400247005 16 645 129 0 ?672 626 642 6
69 0 0 1 30 671 575 0 646 669 673 0 +.034814850600339 .0579663898111583 -.002785
158667038955 -.974603895356163 .223935810348843 209635922315126e-29 16 646 83 0
 ?674 642 615 671 0 0 1 30 673 576 0 615 671 675 0 -.034814850600339 .0579663898
111583 -.00756035866703895 -.974603895356163 .223935810348843 209635922315126e-2
9 16 615 134 0 ?676 646 612 673 0 0 1 31 675 577 0 616 673 677 0 +.0115084790564
1122 .0464986233534857 -.00278515866703996 -1225934931154638e-29 -62716047044187
3e-28 1 0 -1 -627160470441873e-28 .0163956610586631 16 616 81 0 ?678 612 610 675
 0 0 1 31 677 578 0 610 675 679 0 -.01150847905641122 .0464986233534857 -.007560
35866703996 -1225934931154638e-29 -627160470441873e-28 1 0 -1 -627160470441873e-
28 .0163956610586631 16 610 139 0 ?680 616 607 677 0 0 1 31 679 579 0 611 677 42
0 0 --.00659894847248405 .0507184002426949 -.002785158667039915 -122593493115463
8e-29 -627160470441873e-28 1 0 -1 -627160470441873e-28 .00219695706544462 16 611
 79 0 ?681 607 605 679 0 0 1 31 420 580 0 605 679 417 0 +-.00659894847248405 .05
07184002426949 -.00756035866703992 -1225934931154638e-29 -627160470441873e-28 1
 0 -1 -627160470441873e-28 .00219695706544462 16 605 144 0 ?682 611 603 420 0 0
 1 17 682 0 683 604 151 146 684 605 0 0 +15 683 141 0 681 567 0 17 604 0 683 681
 682 95 148 603 0 0 +17 151 0 683 682 681 149 634 632 0 684 -17 684 0 685 686 68
7 149 682 605 0 688 -15 685 196 0 41 387 0 17 686 0 685 41 684 10 688 635 0 0 -1
7 687 0 685 684 689 146 680 610 0 682 -17 688 0 690 634 43 149 686 635 0 0 +15 6
90 146 0 43 292 0 17 634 0 690 91 688 92 151 632 0 0 +17 43 0 690 688 691 10 39
 419 0 686 +16 635 147 0 ?688 419 632 421 0 0 1 16 419 31 0 ?43 603 635 417 0 0
 1 31 421 586 0 635 417 314 0 --.0332139954391795 -.0536970044696334 -.007560358
66704679 -1225934931154638e-29 -627160470441873e-28 1 0 -1 -627160470441873e-28
 .1055571030264084 31 314 588 0 636 421 312 0 +-.0332139954391795 -.053697004469
6334 -.00278515866704679 -1225934931154638e-29 -627160470441873e-28 1 0 -1 -6271
60470441873e-28 .1055571030264084 16 636 77 0 ?91 632 313 314 0 0 1 17 91 0 690
 692 634 89 94 636 0 280 +16 313 148 0 ?692 636 425 312 0 0 1 17 692 0 690 691 9
1 152 472 313 0 594 +17 691 0 690 43 692 36 154 429 0 0 -17 472 0 291 88 594 89
 692 313 0 0 -17 594 0 291 472 592 152 593 303 0 0 -17 593 0 432 591 154 155 594
 303 0 592 +16 303 153 0 ?593 429 328 295 0 0 1 15 432 152 0 44 340 0 17 591 0 4
32 44 593 45 157 326 0 0 -17 154 0 432 593 44 152 691 429 0 692 +17 44 0 432 154
 591 36 590 425 0 39 +17 39 0 38 590 35 36 43 419 0 691 -17 88 0 291 475 472 86
 280 275 0 469 -17 94 0 466 97 280 92 91 636 0 681 -17 97 0 466 100 94 95 681 61
1 0 678 -17 681 0 683 151 604 92 97 611 0 634 +17 100 0 466 103 97 98 678 616 0
 674 -17 678 0 693 148 609 95 100 616 0 604 +15 693 136 0 678 351 0 17 148 0 693
 680 678 146 604 603 0 687 -17 609 0 693 678 680 98 145 607 0 0 +17 680 0 693 60
9 148 143 687 610 0 0 +17 145 0 352 676 674 143 609 607 0 689 -15 352 131 0 674
 348 0 17 676 0 352 614 145 140 689 615 0 0 +17 674 0 352 145 614 98 103 646 0 6
09 +17 689 0 685 687 694 143 676 615 0 680 -17 694 0 685 689 695 140 672 645 0 6
76 -17 695 0 685 694 696 137 668 625 0 672 -17 672 0 697 644 142 137 694 645 0 0
 +15 697 126 0 670 227 0 17 644 0 697 670 672 104 139 642 0 0 +17 142 0 697 672
 670 140 614 612 0 694 -17 670 0 697 142 644 101 106 626 0 614 +17 614 0 352 674
 676 101 142 612 0 0 +17 106 0 466 109 103 104 670 626 0 666 -17 109 0 466 112 1
06 107 666 641 0 662 -17 103 0 466 106 100 101 674 646 0 670 -17 666 0 698 139 6
24 104 109 641 0 644 +15 698 121 0 666 225 0 17 139 0 698 668 666 137 644 642 0
 695 -17 624 0 698 666 668 107 136 622 0 0 +17 668 0 698 624 139 134 695 625 0 0
 +17 136 0 699 664 662 134 624 622 0 696 -15 699 116 0 662 394 0 17 664 0 699 63
9 136 131 696 640 0 0 +17 662 0 699 136 639 107 112 631 0 624 +17 696 0 685 695
 700 134 664 640 0 668 -17 700 0 685 696 701 131 660 630 0 664 -17 701 0 685 700
 702 128 654 620 0 660 -17 660 0 703 629 133 128 700 630 0 0 +15 703 111 0 658 3
46 0 17 629 0 703 658 660 113 130 627 0 0 +17 133 0 703 660 658 131 639 637 0 70
0 -17 658 0 703 133 629 110 115 621 0 639 +17 639 0 699 662 664 110 133 637 0 0
 +17 115 0 466 118 112 113 658 621 0 652 -17 118 0 466 704 115 116 652 650 0 438
 -17 112 0 466 115 109 110 662 631 0 658 -17 704 0 466 468 118 119 438 281 0 648
 -17 438 0 435 124 648 116 704 281 0 619 +17 124 0 435 651 438 122 619 617 0 702
 -16 281 95 0 ?438 275 649 276 0 0 1 17 619 0 347 652 654 116 124 617 0 0 +15 34
7 106 0 652 342 0 17 654 0 347 619 130 122 701 620 0 0 +17 130 0 347 654 652 128
 629 627 0 701 -17 651 0 435 648 124 125 702 649 0 705 +17 702 0 685 701 705 122
 651 649 0 654 -17 705 0 685 702 706 125 197 707 0 0 -17 706 0 685 705 380 70 63
 382 0 198 +17 197 0 187 69 127 70 705 707 0 0 +16 707 191 0 ?197 190 448 708 0
 0 1 16 190 97 0 ?121 181 707 209 0 0 1 16 448 7 0 ?447 707 709 710 0 0 1 133 70
8 647 0 707 215 711 0 +711 .120012748190472 .0748232023591209 -.0075603586670368
5 -.114253138299835 .0729420741856442 -.00756035866703984 2.92865081750746 3.370
593914901295 31 215 646 0 1 209 708 712 -.00706679314084332 -.4475430227638845 -
.002785158667071 -1225934931154638e-29 -627160470441873e-28 1 0 -1 -627160470441
873e-28 .534437332071152 31 711 648 0 1 708 710 713 +.00706679314084332 -.447543
0227638845 -.007560358667071 -1225934931154638e-29 -627160470441873e-28 1 0 -1 -
627160470441873e-28 .534437332071152 31 710 649 0 448 711 403 0 +.09603964176923
3 .0665635938804502 -.00756035866703769 -1225934931154638e-29 -627160470441873e-
28 1 0 -1 -627160470441873e-28 .002413 141 713 708 713 713 711 31 403 650 0 709
 710 398 0 +.0461037036083448 .0710701134989523 -.007560358667038 -1225934931154
638e-29 -627160470441873e-28 1 0 -1 -627160470441873e-28 .002413 16 709 14 0 ?71
4 448 402 403 0 0 1 17 714 0 715 714 714 0 716 709 0 0 +16 402 21 0 ?717 709 42
 398 0 0 1 17 717 0 718 717 717 0 719 402 0 0 +15 718 195 0 717 387 685 17 719 0
 720 719 719 0 717 402 0 0 -15 720 20 0 719 260 721 14 260 19 722 ?404 440 720 4
 255 -0 0 404 440 31 15 721 23 0 465 260 0 17 465 0 721 465 465 0 463 458 0 0 -8
1 1 722 355 436 260 0 0 442 408 723 80 1 436 0 724 8001 0 0 0 0 3 5 0 0 0 FFFFTF
TFFFFFFF2 81 1 442 354 436 440 0 0 439 722 725 81 1 408 356 436 404 0 0 722 554
 726 83 3 723 0 1 0 81 1 554 357 436 359 0 0 408 358 727 83 3 726 0 1 0 81 1 358
 358 436 353 0 0 554 728 729 83 3 727 0 1 0 81 1 728 359 436 17 0 0 358 257 730
 83 3 729 0 1 0 14 17 57 728 ?254 353 516 4 5 -0 0 254 353 31 81 1 257 360 436 2
54 0 0 728 434 731 83 3 730 0 1 0 83 3 731 0 1 0 83 3 725 0 1 0 79 15 724 SDL/TY
SA_COLOUR15 715 194 0 714 387 718 17 716 0 444 716 716 0 714 709 0 0 -15 444 13
 0 716 440 732 15 732 16 0 733 440 0 17 733 0 732 733 733 0 457 453 0 0 -17 457
 0 734 457 457 0 733 453 0 0 +15 734 65 0 457 254 464 15 464 66 0 463 254 466 14
1 712 209 712 712 215 17 447 0 392 447 447 0 445 448 0 0 +15 392 193 0 447 387 7
15 17 121 0 187 127 180 119 468 190 0 704 +17 127 0 187 197 121 125 648 647 0 65
1 -17 468 0 466 185 704 48 121 190 0 179 -18 48 69 0 468 119 122 47 384001919812
183e-20 1 18 70 44 0 706 67 71 49 345076192218264e-20 1 29 49 311 0 70 0 47 -.11
42531382998348 .072942074185644 -.00756035866703809 17 380 0 685 706 518 61 73 3
75 0 0 +17 63 0 555 32 198 61 706 382 0 515 -16 382 42 0 ?706 375 0 22 0 0 1 17
 198 0 555 63 199 70 69 194 0 197 -15 555 41 0 63 359 0 17 199 0 555 198 32 67 6
6 523 0 192 -17 32 0 555 199 63 64 515 9 0 512 +17 66 0 171 76 192 64 199 523 0
 32 +17 76 0 171 79 66 74 512 368 0 508 +17 515 0 360 73 512 61 32 9 0 380 -17 5
18 0 685 380 41 71 517 381 0 0 +17 41 0 685 518 686 59 35 42 0 40 +17 517 0 516
 455 513 59 518 381 0 0 -16 381 59 0 ?518 42 375 376 0 0 1 17 455 0 516 519 517
 56 40 452 0 485 +17 40 0 38 35 58 59 455 452 0 517 -14 346 110 735 ?394 342 703
 4 550 +0 0 394 342 31 81 1 735 363 436 346 0 0 345 736 737 14 394 115 736 ?225
 346 699 4 389 -0 0 225 346 31 81 1 736 364 436 394 0 0 735 738 739 14 225 120 7
38 ?227 394 698 4 218 -0 0 227 394 31 81 1 738 365 436 225 0 0 736 740 741 14 22
7 125 740 ?348 225 697 4 219 +0 0 348 225 31 81 1 740 366 436 227 0 0 738 350 74
2 81 1 350 367 436 348 0 0 740 743 744 83 3 742 0 1 0 81 1 743 368 436 351 0 0 3
50 745 746 83 3 744 0 1 0 14 351 135 743 ?567 348 693 4 354 -0 0 567 348 31 81 1
 745 369 436 567 0 0 743 747 748 83 3 746 0 1 0 14 567 140 745 ?292 351 683 4 39
3 +0 0 292 351 31 81 1 747 370 436 292 0 0 745 431 749 83 3 748 0 1 0 14 292 145
 747 ?340 567 690 4 284 -0 0 340 567 31 81 1 431 371 436 340 0 0 747 339 750 83
 3 749 0 1 0 81 1 339 372 436 336 0 0 431 582 751 83 3 750 0 1 0 83 3 751 0 1 0
 83 3 741 0 1 0 83 3 739 0 1 0 81 1 345 362 436 342 0 0 434 735 752 83 3 737 0 1
 0 83 3 752 0 1 0 14 224 176 753 ?182 289 595 4 250 +0 0 182 289 31 81 1 753 376
 436 224 0 0 566 223 754 81 1 566 375 436 289 0 0 288 753 755 81 1 223 377 436 1
82 0 0 753 534 756 83 3 754 0 1 0 81 1 534 378 436 193 0 0 223 757 758 83 3 756
 0 1 0 81 1 757 379 436 196 0 0 534 391 759 83 3 758 0 1 0 14 196 189 757 ?387 1
93 187 4 204 +0 0 387 193 31 81 1 391 380 436 387 0 0 757 0 760 83 3 759 0 1 0 8
3 3 760 0 1 0 81 1 288 374 436 283 0 0 582 566 761 83 3 755 0 1 0 83 3 761 0 1 0
 83 3 587 0 1 0 40 2 578 0 1 2 877720206790552e-19 .00758704319385175 ??-.075202
5860081531 .046054130267072 -.00440758366704899 -.0971082177125002 .046773548497
7334 -.004300625176200455 41 1 579 L-.0752025860081531 .046054130267072 -.004407
58366704899 41 1 580 L-.0971082177125002 .0467735484977334 -.004300625176200455
 40 4 547 0 1 4 2451939574070045e-23 1717808541556505e-20 ??-.0971082177125002 .
0467735484977334 -.00591471715788602 -.0985263144118245 .0468201212070463 -.0059
1375743030398 -.0999444111031517 .0468666939160966 -.00591278594467354 -.1027806
044618206 .0469598393334094 -.00591080684785781 41 1 548 L-.0971082177125002 .04
67735484977334 -.00591471715788602 41 1 549 L-.1027806044618206 .046959839333409
4 -.00591080684785781 40 4 537 0 1 4 .001290489482465546 .2029584598042225 ??-.1
027390402286626 .0469967873997439 -.004302090267782315 -.1107578297913464 .04816
97234589206 -.004264799241166955 -.118559112958495 .0503643761029822 -.004224341
5793701 -.130083093749388 .0557925219950651 -.00414872226892192 41 1 538 L-.1027
390402286626 .0469967873997439 -.004302090267782315 41 1 539 L-.130083093749388
 .0557925219950651 -.00414872226892192 40 4 530 0 1 4 636423573599546e-19 .04503
94523768095 ??-.0970858535848771 .0467946155857697 -.00429926829872847 -.0999118
44359028 .0468319867940809 -.00430462871773953 -.1013260111452982 .0468984456333
108 -.004304367937524885 -.1027390402286626 .0469967873997439 -.0043020902677823
15 41 1 531 L-.0970858535848771 .0467946155857697 -.00429926829872847 41 1 532 L
-.1027390402286626 .0469967873997439 -.004302090267782315 136 493 1 2 4 2 5 FFT1
 762 763 764 135 494 2 0 45 8 762 -.0716876695778884 .0745995606356127 -.0024753
42167048985 1 -.1045322347255864 .0454027469426229 -.004407583667038085 1 127 2
 763 2 2 128 2 764 0 1 136 461 1 2 4 2 5 FFT1 765 766 767 135 462 2 0 45 8 765 -
.0670238045526794 .0751131730625364 -.00774000016702718 1 -.0988711133366336 .04
51128945282021 -.00580775866703808 1 127 2 766 2 2 128 2 767 0 1 15 259 64 0 450
 254 734 51 261 285 0 440 389 255 0 +.0461037036083418 .071070113498937 .2359748
41332947 -1225681518585986e-29 -62706007508867e-27 1 .002413 1 -768699023249741e
-42 1225681518585986e-29 83 3 443 0 1 0 83 3 437 0 1 0 40 6 422 0 1 6 .000751480
909324758 .2646033709516875 ??-.0466894760950964 .0509964214004749 -.00597243319
368996 -.03575781502465695 .0518294423635865 -.00603690851506519 -.0247990548771
1665 .0515241472759391 -.0061494429229318 -.0159342085673822 .0504361361004709 -
.00637279889140292 -.0115111987371045 .0496049345955954 -.00666627670949044 -.00
714442889591417 .0485902366681258 -.00756113898237235 41 1 423 L-.04668947609509
64 .0509964214004749 -.00597243319368996 41 1 424 L-.00714442889591417 .04859023
66681258 -.00756113898237235 40 4 384 0 1 4 1395671015252306e-31 0 ??-.069984665
4598475 .0723240315209686 -.00756035866703934 -.0713958046939624 .07219381852390
44 -.00756035866703937 -.0728069439280774 .0720636055268402 -.0075603586670394 -
.0747412459292976 .0718851176393819 -.00756035866703943 41 1 385 L-.069984665459
8475 .0723240315209686 -.00756035866703934 41 1 386 L-.0747412459292976 .0718851
176393819 -.00756035866703943 40 4 371 0 1 4 .001290480053003472 .20295712054954
 ??-.130083093749388 .0557925219950652 -.00606662006515425 -.1228843518479594 .0
520704571137532 -.00601653906799839 -.115266605778997 .049305276167388 -.0059732
0842755553 -.1027390402286626 .0469967873997439 -.00591325206629385 41 1 372 L-.
130083093749388 .0557925219950652 -.00606662006515425 41 1 373 L-.10273904022866
26 .0469967873997439 -.00591325206629385 40 2 333 0 1 2 877720207330087e-19 .007
58704319347536 ??-.0971082177125002 .0467735484977334 -.00591471715787571 -.0752
025860081379 .0460541302675317 -.00580775866708939 41 1 334 L-.0971082177125002
 .0467735484977334 -.00591471715787571 41 1 335 L-.0752025860081379 .04605413026
75317 -.00580775866708939 40 2 329 0 1 2 .001514937969710195 .128034959886036 ??
-.0925289484757868 .0466231575016988 -.00590555391837701 -.0689004092051045 .048
1375695006597 -.00590535586243409 41 1 330 L-.0925289484757868 .0466231575016988
 -.00590555391837701 41 1 331 L-.0689004092051045 .0481375695006597 -.0059053558
6243409 40 5 315 0 1 5 .000775537222532198 .2427673467112165 ??-.007500946299096
81 .0486804398393916 -.00278435564418256 -.01235914025439628 .0497794518600533 -
.0036277204564976 -.02224106395388165 .0512882172234544 -.004022639964173285 -.0
34390256717196 .051853544599207 -.00416818481681302 -.0466894760950964 .05099642
14004748 -.00424290914038622 41 1 316 L-.00750094629909681 .0486804398393916 -.0
0278435564418256 41 1 317 L-.0466894760950964 .0509964214004748 -.00424290914038
622 40 2 306 0 1 2 481889168843996e-19 .00346617406707748 ??-.0466894760950964 .
0509964214004748 -.00424290914038622 -.0689004092051046 .0481375695006596 -.0043
0998647164209 41 1 307 L-.0466894760950964 .0509964214004748 -.00424290914038622
 41 1 308 L-.0689004092051046 .0481375695006596 -.00430998647164209 141 294 417
 768 768 284 141 768 312 294 294 284 40 4 271 0 1 4 55796713866193e-30 0 ??-.076
9539824160249 .0699181299607771 -.002785158667039575 -.0755413354265637 .0700308
146794808 -.002785158667039545 -.0741286884371026 .0701434993981845 -.0027851586
67039525 -.0721302168420424 .0703029144616834 -.00278515866703949 41 1 272 L-.07
69539824160249 .0699181299607771 -.002785158667039575 41 1 273 L-.07213021684204
24 .0703029144616834 -.00278515866703949 141 263 241 769 769 250 126 264 FF3 1 7
 2 5 5 3 2 TFF9 4 770 771 772 773 774 125 265 0 1 0 1 0 1 0 1 2 BBBBBBBB????0 0
 0 0 45 56 770 -.0716876695778884 .0745995606356127 -.002475342167048985 1 -.104
5322347255864 .0454027469426229 -.004407583667038085 1 -.0730783817970094 .07444
6407172947 -.002475342167048985 1 -.106222244177012 .0454337214509839 -.00440758
3667038085 1 -.0744690940161304 .0742932537102812 -.002475342167048985 1 -.10791
11193345642 .0455265404876837 -.004407583667038085 1 -.0758598062352513 .0741401
002476152 -.002475342167048985 1 -.109594344587771 .0456809558788937 -.004407583
667038085 1 -.0831803017655515 .0733339239420635 -.002475342167048985 1 -.118454
5838041752 .0464937747824887 -.004407583667038085 1 -.0905514188885485 .07298769
56535083 -.002475342167048985 1 -.1271531928693926 .0490330218140709 -.004407583
667038085 1 -.0979152505573502 .0731041353302926 -.002475342167048985 1 -.135059
2571767842 .0531145240754127 -.004407583667038085 1 127 3 771 4 3 4 127 2 772 2
 2 128 3 773 0 .1596463153129805 1 128 2 774 0 1 141 769 235 263 263 250 40 4 25
1 0 1 4 .000401286753953651 .0628987211307791 ??-.1038709378389542 .069898991772
8227 -.002785158667039905 -.0957993238843759 .0693358497671463 -.002785158667039
845 -.0877083873944326 .0692712531372568 -.00278515866703975 -.0769539824160249
 .0699181299607771 -.002785158667039575 41 1 252 L-.1038709378389542 .0698989917
728227 -.002785158667039905 41 1 253 L-.0769539824160249 .0699181299607771 -.002
785158667039575 133 201 637 0 194 195 202 0 +202 -.114253134425861 .072942075088
6292 -.00756026384225299 -.142464693025467 .0655491684361148 -.00619022520444468
 0 .02920024040808505 40 3 236 0 1 3 .000786811247402691 .158366261754592 ??-.13
0083093749388 .055792521995065 -.00414872226892045 -.134946915329711 .0590364147
160681 -.00410782174933395 -.1424646937781412 .0655491683280385 -.00402511716306
151 41 1 237 L-.130083093749388 .055792521995065 -.00414872226892045 41 1 238 L-
.1424646937781412 .0655491683280385 -.00402511716306151 141 217 202 775 775 204
 141 775 208 217 217 204 141 203 201 203 203 202 40 3 205 0 1 3 .000287882242145
5145 .0328233070405892 ??-.114253134425861 .0729420750886292 -.00756026384225299
 -.1255882679414684 .0701691527550801 -.00703830694308209 -.1424646922727926 .06
55491685441908 -.00619022523787471 41 1 206 L-.114253134425861 .0729420750886292
 -.00756026384225299 41 1 207 L-.1424646922727926 .0655491685441908 -.0061902252
3787471 19 16 1 0 1 0 8 4 S141 23 22 23 23 6 40 3 26 0 1 3 .000596144261831447 .
150695078429439 ??-.101368548224884 .0712456907465219 -.00756035866703979 -.1071
788726547392 .0718356852409343 -.00756035866703983 -.114252897021778 .0729430659
894696 -.00756035866703984 41 1 27 L-.101368548224884 .0712456907465219 -.007560
35866703979 41 1 28 L-.114252897021778 .0729430659894696 -.00756035866703984 141
 19 486 776 777 5 126 20 FF3 1 4 2 5 5 2 2 TFF9 4 778 779 780 781 782 125 21 0 1
 0 1 0 1 0 1 2 BBBBBBBB????0 0 0 0 45 32 778 -.0670238045526794 .075113173062536
4 -.00774000016702718 1 -.0988711133366336 .0451128945282021 -.00580775866703808
 1 -.0685784262277491 .0749419689202286 -.00774000016702718 1 -.100758153799618
 .0452095119996757 -.00580775866703808 1 -.0701330479028187 .0747707647779208 -.
00774000016702718 1 -.1026451942626022 .0453061294711493 -.00580775866703808 1 -
.0716876695778884 .0745995606356127 -.00774000016702718 1 -.1045322347255864 .04
54027469426229 -.00580775866703808 1 127 2 779 4 4 127 2 780 2 2 128 2 781 0 1 1
28 2 782 0 1 141 776 376 777 19 5 141 777 370 19 776 5 74 20 14 4 0 783 391 12 2
 0 0 0 0 0 0 0 0 0 0 0 0 0 0 0 0 81 1 783 352 784 1 0 12 0 0 785 81 1 12 381 786
 1 783 2 0 0 787 80 1 786 788 789 9000 0 0 0 0 3 5 0 0 0 TTTTTTTTTTTTTF1 82 1 78
7 1 79 14 789 AttGS_PS_Layer80 1 784 790 791 8017 0 0 0 0 0 0 0 0 0 TTTTTTTTTTTT
TF3 84 10 785 Unnamed[1]79 13 791 SDL/TYSA_NAME80 1 11 786 792 9000 0 0 0 0 3 5
 0 0 0 FTTFTFTTFFFFFF1 82 1 13 1 79 23 792 ATTRIB_XPARASOLID_LAYER1 0 
